# xmcd
#
# Track frame offsets: 
#        150
#        13841
#        25003
#        38417
#        50440
#        72189
#        87144
#        97362
#        114092
#        126690
#        142157
#        156128
#        172610
#
# Disc length: 2542 seconds
#
# Revision: 0
# Processed by: cddbd v1.5.2PL0 Copyright (c) Steve Scherf et al.
# Submitted via: ExactAudioCopy v1.0b4
#
DISCID=a609ec0d
DTITLE=The Headcutters - Walkin' In USA
DYEAR=2015
DGENRE=Blues
TTITLE0=Need My baby
TTITLE1=California Breakdown
TTITLE2=Be Careful What You Do
TTITLE3=I'm Worried
TTITLE4=Hard Drinking Man
TTITLE5=The Sun Is Shining
TTITLE6=Worried Life Blues
TTITLE7=Moanin' For My Baby
TTITLE8=Keep Your Hand Out Of My Pocket
TTITLE9=One More Chance With You
TTITLE10=Can't Trust Myself
TTITLE11=Gonna Find My Baby
TTITLE12=Raisin' Sand
EXTD=
EXTT0=
EXTT1=
EXTT2=
EXTT3=
EXTT4=
EXTT5=
EXTT6=
EXTT7=
EXTT8=
EXTT9=
EXTT10=
EXTT11=
EXTT12=
PLAYORDER=
